<svg xmlns="http://www.w3.org/2000/svg" xmlns:xlink="http://www.w3.org/1999/xlink" width="162" height="164" viewBox="0 0 162 164">
    <defs>
        <circle id="b" cx="77" cy="77" r="77"/>
        <filter id="a" width="111.7%" height="113%" x="-5.8%" y="-3.2%" filterUnits="objectBoundingBox">
            <feOffset dy="6" in="SourceAlpha" result="shadowOffsetOuter1"/>
            <feGaussianBlur in="shadowOffsetOuter1" result="shadowBlurOuter1" stdDeviation="2"/>
            <feColorMatrix in="shadowBlurOuter1" values="0 0 0 0 0 0 0 0 0 0 0 0 0 0 0 0 0 0 0.5 0"/>
        </filter>
    </defs>
    <g fill="none" fill-rule="evenodd">
        <g fill-rule="nonzero" transform="translate(4)">
            <use fill="#000" filter="url(#a)" xlink:href="#b"/>
            <use fill="#00A9FF" xlink:href="#b"/>
        </g>
        <path fill="#FFF" d="M76.914 88.477c.047-2.79.363-4.993.95-6.61.585-1.617 1.78-3.41 3.585-5.379l4.606-4.746c1.968-2.226 2.953-4.617 2.953-7.172 0-2.46-.645-4.388-1.934-5.783-1.289-1.394-3.164-2.092-5.625-2.092-2.39 0-4.312.633-5.765 1.899-1.454 1.265-2.18 2.965-2.18 5.097H67c.047-3.796 1.4-6.86 4.06-9.193C73.72 52.166 77.185 51 81.45 51c4.429 0 7.88 1.19 10.353 3.568 2.472 2.38 3.709 5.643 3.709 9.791 0 4.102-1.899 8.145-5.696 12.13l-3.832 3.796c-1.71 1.899-2.566 4.629-2.566 8.192h-6.504zm-.281 11.144c0-1.055.322-1.94.967-2.654.644-.715 1.6-1.072 2.865-1.072 1.265 0 2.226.357 2.883 1.072.656.715.984 1.6.984 2.654 0 1.055-.328 1.928-.984 2.62-.657.69-1.618 1.036-2.883 1.036-1.266 0-2.22-.345-2.865-1.037-.645-.691-.967-1.564-.967-2.619z"/>
    </g>
</svg>
